<?xml version="1.0" encoding="utf-8"?>
<!-- Generator: Adobe Illustrator 19.0.0, SVG Export Plug-In . SVG Version: 6.00 Build 0)  -->
<svg version="1.1" id="Layer_1" xmlns="http://www.w3.org/2000/svg" xmlns:xlink="http://www.w3.org/1999/xlink" x="0px" y="0px"
	 viewBox="0 0 141.3 23.5" style="enable-background:new 0 0 141.3 23.5;" xml:space="preserve">
<style type="text/css">
	.st0{fill:#FFFFFF;}
</style>
<g id="XMLID_327_">
	<g id="XMLID_2310_">
		<g id="XMLID_2311_">
			<g id="XMLID_5081_">
				<g id="XMLID_5625_">
					<path id="XMLID_5626_" class="st0" d="M22.5,9.5c0,0.3-0.2,0.4-0.4,0.4h-8c-0.3,0-0.4-0.2-0.4-0.4V8.6c0-0.3,0.2-0.4,0.4-0.4h8
						c0.3,0,0.4,0.2,0.4,0.4V9.5z"/>
				</g>
				<g id="XMLID_5611_">
					<path id="XMLID_5621_" class="st0" d="M26.1,12.2c0,0.3-0.2,0.4-0.4,0.4h-9.8c-0.3,0-0.4-0.2-0.4-0.4v-0.9
						c0-0.3,0.2-0.4,0.4-0.4h9.8c0.3,0,0.4,0.2,0.4,0.4L26.1,12.2L26.1,12.2z"/>
				</g>
				<g id="XMLID_5366_">
					<path id="XMLID_5610_" class="st0" d="M28.8,14.9c0,0.3-0.2,0.4-0.4,0.4H17.6c-0.3,0-0.4-0.2-0.4-0.4V14c0-0.3,0.2-0.4,0.4-0.4
						h10.7c0.3,0,0.4,0.2,0.4,0.4L28.8,14.9L28.8,14.9z"/>
				</g>
				<g id="XMLID_5363_">
					<path id="XMLID_5364_" class="st0" d="M28.8,17.6c0,0.3-0.2,0.4-0.4,0.4H17.6c-0.3,0-0.4-0.2-0.4-0.4v-0.9
						c0-0.3,0.2-0.4,0.4-0.4h10.7c0.3,0,0.4,0.2,0.4,0.4L28.8,17.6L28.8,17.6z"/>
				</g>
				<g id="XMLID_5359_">
					<path id="XMLID_5360_" class="st0" d="M26.1,20.2c0,0.3-0.2,0.4-0.4,0.4h-9.8c-0.3,0-0.4-0.2-0.4-0.4v-0.9
						c0-0.3,0.2-0.4,0.4-0.4h9.8c0.3,0,0.4,0.2,0.4,0.4L26.1,20.2L26.1,20.2z"/>
				</g>
				<g id="XMLID_5094_">
					<path id="XMLID_5211_" class="st0" d="M22.5,22.9c0,0.3-0.2,0.4-0.4,0.4h-8c-0.3,0-0.4-0.2-0.4-0.4V22c0-0.3,0.2-0.4,0.4-0.4h8
						c0.3,0,0.4,0.2,0.4,0.4V22.9z"/>
				</g>
			</g>
			<g id="XMLID_4552_">
				<g id="XMLID_5074_">
					<path id="XMLID_5079_" class="st0" d="M7.4,1.5C7.4,1.8,7.6,2,7.8,2h8c0.3,0,0.4-0.2,0.4-0.4V0.6c0-0.3-0.2-0.4-0.4-0.4h-8
						c-0.3,0-0.4,0.2-0.4,0.4L7.4,1.5L7.4,1.5z"/>
				</g>
				<g id="XMLID_4820_">
					<path id="XMLID_5073_" class="st0" d="M3.8,4.2c0,0.3,0.2,0.4,0.4,0.4h9.8c0.3,0,0.4-0.2,0.4-0.4V3.3c0-0.3-0.2-0.4-0.4-0.4
						H4.3C4,2.9,3.9,3.1,3.9,3.3L3.8,4.2L3.8,4.2z"/>
				</g>
				<g id="XMLID_4801_">
					<path id="XMLID_4819_" class="st0" d="M1.2,6.9c0,0.3,0.2,0.4,0.4,0.4h10.7c0.3,0,0.4-0.2,0.4-0.4V6c0-0.3-0.2-0.4-0.4-0.4H1.6
						C1.4,5.5,1.2,5.8,1.2,6V6.9z"/>
				</g>
				<g id="XMLID_4789_">
					<path id="XMLID_4799_" class="st0" d="M1.2,9.5c0,0.3,0.2,0.4,0.4,0.4h10.7c0.3,0,0.4-0.2,0.4-0.4V8.6c0-0.3-0.2-0.4-0.4-0.4
						H1.6c-0.3,0-0.4,0.2-0.4,0.4V9.5z"/>
				</g>
				<g id="XMLID_4787_">
					<path id="XMLID_4788_" class="st0" d="M3.8,12.2c0,0.3,0.2,0.4,0.4,0.4h9.8c0.3,0,0.4-0.2,0.4-0.4v-0.9c0-0.3-0.2-0.4-0.4-0.4
						H4.3c-0.3,0-0.4,0.2-0.4,0.4L3.8,12.2L3.8,12.2z"/>
				</g>
				<g id="XMLID_4773_">
					<path id="XMLID_4782_" class="st0" d="M7.4,14.9c0,0.3,0.2,0.4,0.4,0.4h8c0.3,0,0.4-0.2,0.4-0.4V14c0-0.3-0.2-0.4-0.4-0.4h-8
						c-0.3,0-0.4,0.2-0.4,0.4L7.4,14.9L7.4,14.9z"/>
				</g>
			</g>
		</g>
	</g>
	<g id="XMLID_5639_">
		<g id="XMLID_621_">
			<g id="XMLID_680_">
				<path id="XMLID_1587_" class="st0" d="M39.3,17C38.8,17,38.4,17,38,17c-1.1,0-2-0.2-2.5-0.5c-0.5-0.3-0.9-0.8-1.1-1.6
					s-0.3-1.8-0.3-3.3c0-1.4,0.1-2.5,0.3-3.3c0.2-0.7,0.5-1.3,1.1-1.6c0.5-0.3,1.4-0.5,2.5-0.5c0.4,0,0.8,0,1.2,0.1
					c0.4,0.1,0.8,0.1,1,0.2v1.8c-0.8-0.1-1.4-0.1-1.7-0.1c-0.7,0-1.2,0.1-1.4,0.2c-0.3,0.1-0.4,0.4-0.5,0.8
					c-0.1,0.4-0.1,1.2-0.1,2.3s0,1.9,0.1,2.3s0.2,0.7,0.5,0.8c0.3,0.1,0.7,0.2,1.4,0.2c0.6,0,1.2-0.1,1.7-0.1v1.8
					C40.1,16.8,39.7,16.9,39.3,17z"/>
				<path id="XMLID_1434_" class="st0" d="M42.8,16.6c-0.5-0.3-0.9-0.8-1-1.5c-0.1-0.7-0.2-1.8-0.2-3.4c0-1.6,0.1-2.7,0.2-3.4
					s0.5-1.2,1-1.5c0.5-0.3,1.4-0.5,2.7-0.5c1.3,0,2.2,0.2,2.7,0.5c0.5,0.3,0.9,0.8,1,1.5c0.1,0.7,0.2,1.8,0.2,3.4s-0.1,2.7-0.2,3.4
					c-0.1,0.7-0.5,1.2-1,1.5S46.8,17,45.5,17C44.3,17,43.4,16.9,42.8,16.6z M46.6,14.9c0.2-0.1,0.3-0.4,0.4-0.8s0.1-1.2,0.1-2.4
					c0-1.2,0-2-0.1-2.4c-0.1-0.4-0.2-0.7-0.4-0.8c-0.2-0.1-0.6-0.2-1.1-0.2c-0.5,0-0.9,0.1-1.1,0.2c-0.2,0.1-0.3,0.4-0.4,0.8
					C44,9.7,44,10.5,44,11.7c0,1.2,0,2,0.1,2.4c0.1,0.4,0.2,0.7,0.4,0.8c0.2,0.1,0.6,0.2,1.1,0.2C46,15.1,46.4,15,46.6,14.9z"/>
				<path id="XMLID_890_" class="st0" d="M56.4,16.9l-3-5.9h-0.1v5.9h-2.3V6.5h2.4l2.9,5.5h0.1V6.5h2.3v10.4H56.4z"/>
				<path id="XMLID_831_" class="st0" d="M62.2,16.9V8.5h-2.5v-2H67v2h-2.5v8.4H62.2z"/>
				<path id="XMLID_744_" class="st0" d="M68.2,16.9V6.5h6.2v1.9h-3.9v2.2h3.4v1.9h-3.4V15h3.9v1.9L68.2,16.9L68.2,16.9z"/>
				<path id="XMLID_743_" class="st0" d="M81.5,16.9l-3-5.9h-0.1v5.9h-2.3V6.5h2.4l2.9,5.5h0.1V6.5h2.3v10.4H81.5z"/>
				<path id="XMLID_726_" class="st0" d="M87.2,16.9V8.5h-2.5v-2H92v2h-2.5v8.4H87.2z"/>
				<path id="XMLID_725_" class="st0" d="M93.1,16.8v-1.8c1.3,0.1,2.1,0.2,2.7,0.2c0.4,0,0.7,0,1-0.1c0.2-0.1,0.4-0.1,0.5-0.2
					c0.1-0.1,0.2-0.2,0.2-0.3c0-0.1,0-0.3,0-0.6c0-0.3,0-0.6-0.1-0.7c-0.1-0.1-0.1-0.2-0.3-0.3c-0.1-0.1-0.3-0.1-0.6-0.2l-1.7-0.2
					c-0.8-0.1-1.3-0.4-1.6-0.9c-0.3-0.5-0.4-1.2-0.4-2.1c0-0.9,0.2-1.5,0.4-2s0.7-0.8,1.2-0.9s1.2-0.2,1.9-0.2
					c0.9,0,1.9,0.1,2.9,0.3v1.8c-0.9-0.1-1.7-0.2-2.4-0.2c-0.7,0-1.2,0.1-1.4,0.2c-0.1,0.1-0.2,0.2-0.2,0.3c0,0.1-0.1,0.3-0.1,0.6
					c0,0.3,0,0.5,0.1,0.6c0,0.1,0.1,0.2,0.2,0.3s0.3,0.1,0.6,0.2l1.8,0.3c0.4,0.1,0.7,0.2,1,0.3s0.5,0.4,0.7,0.7
					c0.2,0.4,0.3,1.1,0.3,1.9c0,1-0.1,1.7-0.4,2.2c-0.3,0.5-0.6,0.8-1.1,1c-0.5,0.2-1.1,0.2-1.8,0.2C95.1,17,94,16.9,93.1,16.8z"/>
				<path id="XMLID_724_" class="st0" d="M103,16.9V8.5h-2.4v-2h7.3v2h-2.5v8.4H103z"/>
				<path id="XMLID_722_" class="st0" d="M114,16.9l-0.5-2.1h-3.1l-0.5,2.1h-2.4l2.8-10.4h3.3l2.8,10.4H114z M112,8.6h-0.1l-1,4.3
					h2.1L112,8.6z"/>
				<path id="XMLID_718_" class="st0" d="M122.3,17c-0.4,0.1-0.8,0.1-1.2,0.1c-1.1,0-2-0.2-2.5-0.5c-0.5-0.3-0.9-0.8-1.1-1.6
					s-0.3-1.8-0.3-3.3c0-1.4,0.1-2.5,0.3-3.3c0.2-0.7,0.5-1.3,1.1-1.6c0.5-0.3,1.4-0.5,2.5-0.5c0.4,0,0.8,0,1.2,0.1s0.8,0.1,1,0.2
					v1.8c-0.8-0.1-1.4-0.1-1.7-0.1c-0.7,0-1.2,0.1-1.4,0.2s-0.4,0.4-0.5,0.8c-0.1,0.4-0.1,1.2-0.1,2.3s0,1.9,0.1,2.3
					c0.1,0.4,0.2,0.7,0.5,0.8s0.7,0.2,1.4,0.2c0.6,0,1.2-0.1,1.7-0.1v1.8C123.1,16.8,122.7,16.9,122.3,17z"/>
				<path id="XMLID_716_" class="st0" d="M130.2,16.9l-2.3-4.3h-0.6v4.3h-2.3V6.5h2.3v4.1h0.6l2.4-4.1h2.5l-3,5l3,5.4L130.2,16.9
					L130.2,16.9z"/>
			</g>
		</g>
		<g id="XMLID_5640_">
			<path id="XMLID_5630_" class="st0" d="M135.3,9.6V7h-0.9V6.5h2.4V7h-0.9v2.6H135.3z"/>
			<path id="XMLID_5629_" class="st0" d="M137.2,9.6V6.5h0.9l0.6,2.1l0.6-2.1h0.9v3.1h-0.6V7.2L139,9.6h-0.6l-0.6-2.4v2.4H137.2z"/>
		</g>
	</g>
</g>
</svg>
