<?xml version="1.0" encoding="utf-8"?>
<!-- Generator: Adobe Illustrator 19.0.0, SVG Export Plug-In . SVG Version: 6.00 Build 0)  -->
<svg version="1.1" id="devices_1_" xmlns="http://www.w3.org/2000/svg" xmlns:xlink="http://www.w3.org/1999/xlink" x="0px" y="0px"
	 viewBox="0 0 488.3 500.4" style="enable-background:new 0 0 488.3 500.4;" xml:space="preserve">
<style type="text/css">
	.st0{fill:#EDEDED;}
	.st1{fill:none;stroke:#C5C8CA;stroke-width:0.9852;stroke-miterlimit:10;}
	.st2{fill:#C5C8CA;}
	.st3{fill:#FFFFFF;stroke:#F4B63B;stroke-miterlimit:10;}
	.st4{fill:none;}
	.st5{fill:#201E24;}
	.st6{font-family:'OpenSans';}
	.st7{font-size:18px;}
	.st8{font-family:'OpenSans-Light';}
	.st9{font-size:16px;}
	.st10{font-size:17.3641px;}
	.st11{font-size:17px;}
	.st12{font-size:15px;}
	.st13{font-size:15.3446px;}
	.st14{font-size:13px;}
	.st15{font-size:11px;}
	.st16{font-size:12px;}
	.st17{fill:#EDEDED;stroke:#C5C8CA;stroke-miterlimit:10;}
	.st18{fill:#EDEDED;stroke:#C5C8CA;stroke-width:0.9852;stroke-miterlimit:10;}
	.st19{font-size:10px;}
</style>
<g id="devices">
	<g id="desktop">
		<g id="XMLID_4757_">
			<g id="XMLID_4758_">
				<g id="XMLID_4770_">
					
						<image style="overflow:visible;opacity:0.15;" width="426" height="287" id="XMLID_43_" xlink:href="51CFA5B9.png"  transform="matrix(1 0 0 1 28.7185 5.2791)">
					</image>
					<g id="XMLID_30_">
						<path id="XMLID_42_" class="st0" d="M439.8,286.3c5.3,0,9.5-4.3,9.5-9.5V16.6c0-4-3.5-7.3-7.8-7.3H41.3
							c-4.3,0-7.8,3.3-7.8,7.3v260.2c0,5.3,4.3,9.5,9.5,9.5H439.8z"/>
						<path id="XMLID_41_" class="st1" d="M439.8,286.3c5.3,0,9.5-4.3,9.5-9.5V16.6c0-4-3.5-7.3-7.8-7.3H41.3
							c-4.3,0-7.8,3.3-7.8,7.3v260.2c0,5.3,4.3,9.5,9.5,9.5H439.8z"/>
					</g>
				</g>
				<g id="XMLID_4763_">
					<g id="XMLID_4767_">
						<circle id="XMLID_4769_" class="st2" cx="48.5" cy="28.7" r="4.3"/>
						<circle id="XMLID_4768_" class="st2" cx="77.7" cy="28.7" r="4.3"/>
					</g>
					<circle id="XMLID_4764_" class="st2" cx="63.1" cy="28.7" r="4.3"/>
				</g>
				<path id="XMLID_4762_" class="st2" d="M402.6,33.7H98.7c-1.7,0-3.1-1.4-3.1-3.1v-3.7c0-1.7,1.4-3.1,3.1-3.1h303.9
					c1.7,0,3.1,1.4,3.1,3.1v3.7C405.7,32.3,404.3,33.7,402.6,33.7z"/>
				<path id="XMLID_4759_" class="st3" d="M431,278.6H51.8c-5.1,0-9.1-4.1-9.1-9.1V52.7c0-5.1,4.1-9.1,9.1-9.1H431
					c5.1,0,9.1,4.1,9.1,9.1v216.7C440.2,274.5,436.1,278.6,431,278.6z"/>
			</g>
		</g>
		<rect id="XMLID_79_" x="61.1" y="63.2" class="st4" width="359.1" height="193.8"/>
		<text id="XMLID_4755_" transform="matrix(1 0 0 1 61.1067 76.8711)"><tspan x="0" y="0" class="st5 st6 st7">Lorem ipsum dolor</tspan><tspan x="0" y="27.2" class="st5 st8 st9">Lorem ipsum dolor sit amet,</tspan><tspan x="0" y="48" class="st5 st8 st9">consectetur adipiscing elit. Nunc</tspan><tspan x="232.3" y="48" class="st5 st8 st10"> </tspan></text>
		
			<image style="overflow:visible;" width="230" height="153" id="image_1_" xlink:href="../../ref/dummy_img.png"  transform="matrix(0.7327 0 0 0.7327 61.1071 139.3875)">
		</image>
	</g>
	<g id="tablet">
		<g id="XMLID_4747_">
			<g id="XMLID_4753_">
				
					<image style="overflow:visible;opacity:0.15;" width="300" height="213" id="XMLID_38_" xlink:href="51CFA5BB.png"  transform="matrix(1 0 0 1 183.1511 189.7117)">
				</image>
				<g id="XMLID_26_">
					<path id="XMLID_37_" class="st0" d="M200,397.4c-7.1,0-12.8-5.6-12.8-12.5V205c0-6.9,5.7-12.5,12.8-12.5h265.5
						c7.1,0,12.8,5.6,12.8,12.5v179.9c0,6.9-5.7,12.5-12.8,12.5H200z"/>
					<path id="XMLID_35_" class="st1" d="M200,397.4c-7.1,0-12.8-5.6-12.8-12.5V205c0-6.9,5.7-12.5,12.8-12.5h265.5
						c7.1,0,12.8,5.6,12.8,12.5v179.9c0,6.9-5.7,12.5-12.8,12.5H200z"/>
				</g>
			</g>
			<circle id="XMLID_4752_" class="st2" cx="469.6" cy="294.9" r="3.1"/>
			<circle id="XMLID_4751_" class="st2" cx="198.7" cy="294.9" r="7.9"/>
			<path id="XMLID_4748_" class="st3" d="M218.7,204.6h234.8c4.4,0,8,3.6,8,8v164.7c0,4.4-3.6,8-8,8H218.7c-4.4,0-8-3.6-8-8V212.6
				C210.7,208.2,214.3,204.6,218.7,204.6z"/>
		</g>
		<rect id="XMLID_64_" x="223.2" y="218" class="st4" width="227" height="157.4"/>
		<text id="XMLID_4745_" transform="matrix(1 0 0 1 223.1975 230.9393)"><tspan x="0" y="0" class="st5 st6 st11">Lorem ipsum dolor</tspan><tspan x="0" y="27" class="st5 st8 st12">Lorem ipsum dolor sit amet, </tspan><tspan x="0" y="47.9" class="st5 st8 st12">consectetur adipiscing elit. Nunc</tspan><tspan x="217.8" y="47.9" class="st5 st8 st13"> </tspan></text>
		
			<image style="overflow:visible;" width="230" height="153" id="image_2_" xlink:href="../../ref/dummy_img.png"  transform="matrix(0.5258 0 0 0.5258 223.1979 294.5515)">
		</image>
	</g>
	<g id="mobile">
		<g id="XMLID_4736_">
			<g id="XMLID_4743_">
				
					<image style="overflow:visible;opacity:0.15;" width="142" height="255" id="XMLID_40_" xlink:href="51CFA5BC.png"  transform="matrix(1 0 0 1 5.1511 202.7117)">
				</image>
				<g id="XMLID_29_">
					<path id="XMLID_39_" class="st0" d="M142,438.9c0,7.4-6,13.4-13.4,13.4H23.1c-7.4,0-13.4-6-13.4-13.4V219.1
						c0-7.4,6-13.4,13.4-13.4h105.4c7.4,0,13.4,6,13.4,13.4V438.9z"/>
					<path id="XMLID_36_" class="st1" d="M142,438.9c0,7.4-6,13.4-13.4,13.4H23.1c-7.4,0-13.4-6-13.4-13.4V219.1
						c0-7.4,6-13.4,13.4-13.4h105.4c7.4,0,13.4,6,13.4,13.4V438.9z"/>
				</g>
			</g>
			<path id="XMLID_4742_" class="st2" d="M86.3,215.2c0,0.4-0.4,0.7-1,0.7H66.9c-0.5,0-1-0.3-1-0.7v-0.8c0-0.4,0.4-0.7,1-0.7h18.4
				c0.6,0,1,0.3,1,0.7V215.2z"/>
			<path id="XMLID_4739_" class="st3" d="M138.4,232v183.1c0,4.4-3.6,8-8,8H21.3c-4.4,0-8-3.6-8-8V232c0-4.4,3.6-8,8-8h109.1
				C134.8,224,138.4,227.6,138.4,232z"/>
			<rect id="XMLID_50_" x="22.6" y="237.3" class="st4" width="106.5" height="157.4"/>
			<text id="XMLID_4737_" transform="matrix(1 0 0 1 22.6106 247.2079)"><tspan x="0" y="0" class="st5 st6 st14">Lorem ipsum </tspan><tspan x="0" y="18" class="st5 st6 st14">dolor</tspan><tspan x="0" y="40" class="st5 st8 st15">Lorem ipsum dolor </tspan><tspan x="0" y="55" class="st5 st8 st15">sit amet, consectetur </tspan><tspan x="0" y="70" class="st5 st8 st15">adipiscing elit. Nunc</tspan><tspan x="98.1" y="70" class="st5 st6 st16"> </tspan></text>
		</g>
		<circle id="XMLID_4735_" class="st2" cx="73.7" cy="439.4" r="7.9"/>
		
			<image style="overflow:visible;" width="230" height="153" id="image_3_" xlink:href="../../ref/dummy_img.png"  transform="matrix(0.4552 0 0 0.4552 22.6106 333.0855)">
		</image>
	</g>
	<g id="watch">
		<g id="XMLID_1_">
			<path id="XMLID_4733_" class="st17" d="M214.4,429.5h-42.2c-1.2,0-2.3,0.8-2.3,2v42c0,1.2,1,2.2,2.3,2.2L214,476l44,4.9v-56.5
				L214.4,429.5z"/>
			<path id="XMLID_4732_" class="st17" d="M359.6,429.3l-41.9-0.2l-44.7-4.9v56.5l45.6-4.2h41.6c1.6,0,1.9-2,1.9-3.6v-40.8
				C361.9,430.6,361.2,429.3,359.6,429.3z"/>
			<path id="XMLID_4731_" class="st18" d="M298.9,410.4c5.4,0,9.9,4.4,9.9,9.9v64.5c0,5.4-4.4,9.9-9.9,9.9h-64.8
				c-5.4,0-9.9-4.4-9.9-9.9v-64.5c0-5.4,4.4-9.9,9.9-9.9H298.9z"/>
			<path id="XMLID_4730_" class="st2" d="M329.3,446.8c1.3,0,2.3,1,2.3,2.3v5.6c0,1.3-1,2.3-2.3,2.3l0,0c-1.3,0-2.3-1-2.3-2.3v-5.6
				C327,447.8,328,446.8,329.3,446.8L329.3,446.8z"/>
			<path id="XMLID_4729_" class="st2" d="M340.7,447.2c1.2,0,2.1,0.9,2.1,2.1v5.1c0,1.2-0.9,2.1-2.1,2.1l0,0c-1.2,0-2.1-0.9-2.1-2.1
				v-5.1C338.6,448.2,339.6,447.2,340.7,447.2L340.7,447.2z"/>
			<path id="XMLID_4728_" class="st2" d="M352.5,448.4c0.9,0,1.6,0.7,1.6,1.6v3.9c0,0.9-0.7,1.6-1.6,1.6l0,0c-0.9,0-1.6-0.7-1.6-1.6
				V450C351,449.1,351.7,448.4,352.5,448.4L352.5,448.4z"/>
			<path id="XMLID_4725_" class="st3" d="M300.5,426.5v52c0,4.4-3.6,8-8,8h-52c-4.4,0-8-3.6-8-8v-52c0-4.4,3.6-8,8-8h52
				C296.9,418.5,300.5,422.1,300.5,426.5z"/>
		</g>
		
			<image style="overflow:visible;" width="230" height="153" id="image" xlink:href="../../ref/dummy_img.png"  transform="matrix(0.2024 0 0 0.2024 237.7658 450.8728)">
		</image>
		<rect id="XMLID_16_" x="237.8" y="423.3" class="st4" width="58.2" height="23.5"/>
		<text id="XMLID_4721_" transform="matrix(1 0 0 1 237.7659 430.8594)"><tspan x="0" y="0" class="st5 st6 st19">Lorem </tspan><tspan x="0" y="12" class="st5 st6 st19">ipsum dolor</tspan><tspan x="56.3" y="12" class="st5 st8 st19"> </tspan></text>
	</g>
</g>
</svg>
