<?xml version="1.0" encoding="utf-8"?>
<!-- Generator: Adobe Illustrator 19.0.0, SVG Export Plug-In . SVG Version: 6.00 Build 0)  -->
<svg version="1.1" id="Layer_1" xmlns="http://www.w3.org/2000/svg" xmlns:xlink="http://www.w3.org/1999/xlink" x="0px" y="0px"
	 viewBox="0 0 10.3 10.3" style="enable-background:new 0 0 10.3 10.3;" xml:space="preserve">
<style type="text/css">
	.st0{fill:#FFFFFF;}
</style>
<g id="XMLID_27_">
	<path id="XMLID_28_" class="st0" d="M10.3,5.1c0,2.8-2.3,5.1-5.1,5.1S0,8,0,5.1C0,2.3,2.3,0,5.1,0S10.3,2.3,10.3,5.1z M6.8,3.6
		c0,0,0.1-0.1,0.1-0.2c0,0,0.1-0.1,0.1-0.1c0.1,0,0.2-0.1,0.3-0.1c0.1,0,0.3,0,0.3,0.1c0,0,0.1-0.2,0.2-0.2c0.1,0,0.2,0,0.2-0.1
		c0,0,0-0.1,0-0.1C8,3,8,2.9,8,2.8c0,0,0,0,0,0.1c0-0.1-0.1,0-0.2,0c-0.2,0-0.1-0.1-0.2-0.3c0-0.1-0.1-0.1-0.1-0.1
		c0,0,0-0.1-0.1-0.1c0,0-0.1,0.1-0.1,0.1c-0.1,0-0.1,0-0.1,0c0,0-0.1,0-0.1,0c0.1,0-0.1-0.1-0.1-0.1c0.1,0,0-0.1,0-0.2c0,0,0,0,0,0
		c0-0.1-0.2-0.1-0.3-0.2C6.6,2,6.2,1.9,6.2,2c-0.1,0,0,0.2,0,0.2c0,0.1-0.1,0.1-0.1,0.2c0,0.1,0.2,0.1,0.2,0.2
		c0,0.1-0.2,0.1-0.2,0.2C6,2.9,6.1,3,6.1,3.1C6.2,3.1,6,3.2,6,3.2C5.9,3.2,5.8,3.1,5.8,3c0-0.1,0-0.2-0.1-0.2c0,0-0.2,0-0.2,0
		c0-0.1-0.2-0.1-0.3-0.2c-0.1,0-0.2,0-0.4,0c0,0,0-0.2-0.1-0.2c0-0.1,0-0.1,0-0.2c0-0.1,0-0.1,0.1-0.2c0,0,0.2-0.2,0.1-0.2
		c0.1,0,0.2,0,0.3-0.1c0.1-0.1,0.1-0.2,0.1-0.2c0.1-0.1,0.2,0,0.3,0c0.1,0,0.1-0.1,0.1-0.2c0.1,0,0-0.2,0-0.2c-0.1,0-0.3,0-0.2,0.1
		c0,0-0.2,0.3-0.3,0.2c0,0,0-0.2-0.1-0.2c-0.1,0-0.1,0.1-0.1,0.1c0-0.1-0.2-0.1-0.2-0.2c0.1-0.1,0-0.1-0.1-0.2C4.7,1,4.5,1,4.5,1
		C4.4,1.2,4.6,1.2,4.7,1.2c0,0,0.1,0.1,0.1,0.1c0,0-0.2,0.1-0.2,0.1c0,0.1,0,0.1,0,0.2C4.5,1.5,4.5,1.4,4.5,1.4c0.1,0.1-0.2,0-0.2,0
		c-0.1,0-0.3,0.1-0.3,0c0,0,0-0.2,0-0.1c-0.1,0-0.1-0.1-0.1-0.1C3.5,1.2,3.3,1.3,3.1,1.4c0,0,0,0,0.1,0c0.1,0,0.1-0.1,0.2-0.1
		c0.1,0,0.2-0.1,0.3,0c0,0,0,0,0,0c0,0.1,0.1,0.1,0.1,0.2c-0.1,0-0.1,0-0.2,0c0,0-0.1,0-0.1,0.1c0,0,0,0.1,0,0.1
		C3.4,1.5,3.4,1.4,3.2,1.4c-0.1,0-0.1,0-0.1,0C2.4,1.7,1.9,2.3,1.5,2.9c0,0,0.1,0,0.1,0.1c0.1,0,0,0.2,0.1,0.1c0,0,0,0.1,0,0.1
		c0,0,0.3,0.2,0.3,0.2c0,0,0.1,0.1,0.1,0.1c0,0,0,0.1-0.1,0.1c0,0-0.1-0.1-0.1-0.1c0,0,0,0.2,0.1,0.2C2,3.7,2,4.2,2,4.2c0,0,0,0,0,0
		c0,0.1,0,0.4,0.2,0.4C2.1,4.6,2.3,4.9,2.4,5C2.4,5,2.5,5.1,2.6,5.1c0.1,0.1,0.1,0.2,0.2,0.3c0,0.1,0.1,0.2,0.1,0.3c0,0,0,0,0,0
		c0,0.1,0.2,0.1,0.2,0.2c0,0.1,0,0.2,0.1,0.2c0-0.1-0.1-0.3-0.2-0.4c0-0.1-0.1-0.1-0.1-0.2c0-0.1,0-0.1-0.1-0.2c0,0,0.2,0.1,0.2,0.1
		C2.9,5.5,3.2,5.7,3.3,5.8c0,0,0.2,0.2,0.1,0.2c0.1,0,0.2,0.1,0.2,0.2c0.1,0.1,0,0.2,0.1,0.3c0,0.1,0.2,0.2,0.3,0.3
		c0.1,0,0.2,0.1,0.3,0.1C4.4,7,4.5,7,4.6,7c0.2,0,0.2,0.2,0.3,0.2c0.1,0,0.3,0.1,0.4,0.1c0,0,0.1,0.3,0.2,0.3
		c0.1,0.1,0.2,0.1,0.2,0.2c0,0,0,0,0-0.1c0,0.1,0.1,0.2,0.2,0.2C6,7.9,6,7.8,6,7.7c-0.1,0.1-0.3,0-0.3-0.1c0,0-0.1-0.2,0-0.2
		c0.1,0,0-0.1,0-0.2S5.6,7,5.5,6.9c0,0.1-0.2,0.1-0.2,0c0,0,0,0.1,0,0.1c0,0-0.1,0-0.1,0c0-0.1,0-0.2,0-0.3c0-0.1,0.3-0.4,0-0.3
		c-0.1,0-0.1,0-0.2,0.1c0,0.1,0,0.2-0.1,0.2c-0.1,0-0.3,0-0.3,0C4.5,6.6,4.4,6.4,4.4,6.3c0-0.2,0.1-0.3,0-0.5c0,0,0.1-0.1,0.1-0.1
		c0,0,0.1,0,0.1-0.1c0,0,0,0-0.1,0c0.1,0,0.3-0.1,0.4,0c0.1,0,0.1,0.1,0.1,0c0,0,0-0.1,0-0.2c0,0.1,0.1,0.1,0.2,0.1
		c0,0,0.1,0,0.2,0.1c0.1,0,0.1,0.1,0.2,0c0.1,0.1,0.1,0.1,0.1,0.2c0,0.1,0.1,0.3,0.1,0.3C6,6,6,5.8,5.9,5.7c0,0,0-0.2,0-0.2
		c-0.2,0-0.1-0.2,0-0.3c0,0,0.2-0.1,0.2-0.1C6.2,5,6.3,4.9,6.3,4.8c0,0,0.1,0,0.1-0.1c0,0-0.1-0.1-0.1-0.1c0,0,0-0.1,0-0.1
		c0.1,0,0-0.1,0.1-0.1c0.1,0.1,0.2,0,0.1-0.1c0.1-0.1,0.2,0,0.3-0.1c0.1,0,0-0.1,0.1-0.2C6.9,4,6.9,4,7,3.9c0,0,0.2-0.1,0.1-0.1
		c0.1,0,0.3-0.1,0.2-0.2c0-0.1-0.1-0.1-0.1-0.1c0,0,0.1,0,0.1,0c0.1-0.1,0-0.1,0-0.1c-0.1,0-0.2,0-0.3,0.1C6.9,3.5,6.9,3.6,6.8,3.6z
		 M8.2,8.1c0,0-0.1,0-0.2-0.1C8,8,8,8,7.9,8c0-0.1-0.1-0.2-0.2-0.2C7.6,7.7,7.5,7.6,7.4,7.6c0,0-0.1,0.1-0.1,0.1
		C7.2,7.6,7.2,7.6,7.1,7.6c-0.1,0-0.2-0.2-0.3,0c-0.1,0.1,0,0.1-0.1,0.2c-0.1-0.1,0.1-0.2,0-0.2C6.6,7.4,6.5,7.5,6.4,7.6
		c0,0-0.1,0-0.1,0.1c0,0,0,0.1-0.1,0.2c0-0.1-0.1,0-0.1-0.1c0,0.2,0,0.3,0.1,0.5c0,0.1,0,0.2-0.1,0.3S5.9,8.7,5.9,8.8
		C5.9,8.9,5.9,9,6,9c0,0.1-0.1,0.2-0.1,0.3c0,0,0,0.1,0,0.1C6.8,9.2,7.6,8.7,8.2,8.1z"/>
</g>
</svg>
