<?xml version="1.0" encoding="utf-8"?>
<!-- Generator: Adobe Illustrator 19.0.0, SVG Export Plug-In . SVG Version: 6.00 Build 0)  -->
<svg version="1.1" id="Layer_1" xmlns="http://www.w3.org/2000/svg" xmlns:xlink="http://www.w3.org/1999/xlink" x="0px" y="0px"
	 viewBox="-471.7 303.8 40 40" style="enable-background:new -471.7 303.8 40 40;" xml:space="preserve">
<style type="text/css">
	.st0{fill:#FFFFFF;}
	.st1{fill:#434343;}
</style>
<circle class="st0" cx="-451.7" cy="323.8" r="20"/>
<g>
	<path id="XMLID_4_" class="st1" d="M-465.4,324.4l7.2,7.2c0.3,0.3,0.8,0.3,1.1,0c0.3-0.3,0.3-0.8,0-1.1l-6.6-6.7l6.6-6.6
		c0.3-0.3,0.3-0.8,0-1.1c-0.3-0.3-0.8-0.3-1.1,0l-7.2,7.1C-465.7,323.5-465.7,324.1-465.4,324.4L-465.4,324.4z"/>
	<path id="XMLID_3_" class="st1" d="M-438,324.4c0.3-0.3,0.3-0.8,0-1.1l-7.2-7.2c-0.3-0.3-0.8-0.3-1.1,0c-0.3,0.3-0.3,0.8,0,1.1
		l6.6,6.6l-6.6,6.6c-0.3,0.3-0.3,0.8,0,1.1c0.3,0.3,0.8,0.3,1.1,0L-438,324.4L-438,324.4z"/>
</g>
</svg>
